<?xml version="1.0" encoding="utf-8"?>
<!-- Generator: Adobe Illustrator 26.0.1, SVG Export Plug-In . SVG Version: 6.00 Build 0)  -->
<svg version="1.1" id="Слой_1" xmlns="http://www.w3.org/2000/svg" xmlns:xlink="http://www.w3.org/1999/xlink" x="0px" y="0px"
	 viewBox="0 0 1700.8 1133.9" style="enable-background:new 0 0 1700.8 1133.9;" xml:space="preserve">
<style type="text/css">
	.st0{fill:#4CBFD9;}
	.st1{fill:#77BCE8;}
	.st2{fill:#246CA2;}
	.st3{fill:#FFFFFF;}
</style>
<g>
	<g>
		<path class="st0" d="M1655.6,30.9c5.2,0,9.3,4.2,9.3,9.3v1053.4c0,5.2-4.2,9.3-9.3,9.3H45.2c-5.2,0-9.3-4.2-9.3-9.3V40.2
			c0-5.2,4.2-9.3,9.3-9.3L1655.6,30.9 M1655.6,11.9H45.2c-15.7,0-28.3,12.7-28.3,28.3v1053.4c0,15.7,12.7,28.3,28.3,28.3h1610.4
			c15.7,0,28.3-12.7,28.3-28.3V40.2C1684,24.6,1671.3,11.9,1655.6,11.9L1655.6,11.9z"/>
	</g>
</g>
<g>
	<path class="st1" d="M1104.6,1052.2H596.2c-127.6,0-231.1-103.5-231.1-231.1V312.8c0-127.6,103.5-231.1,231.1-231.1h508.3
		c127.6,0,231.1,103.5,231.1,231.1v508.3C1335.6,948.7,1232.2,1052.2,1104.6,1052.2z"/>
	<rect x="510.1" y="349.4" class="st2" width="284.3" height="78.6"/>
	<rect x="609.9" y="247.7" class="st2" width="83.6" height="278.5"/>
	<rect x="510.1" y="656.3" class="st3" width="284.3" height="78.6"/>
	<rect x="508.7" y="775.9" class="st3" width="284.3" height="78.6"/>
	<rect x="948.8" y="349.7" class="st2" width="284.3" height="78.6"/>
</g>
</svg>
